# xmcd
#
# Track frame offsets: 
#        150
#        19985
#        40661
#        65771
#        87271
#        118402
#        143563
#        184581
#        208564
#        229834
#        246994
#
# Disc length: 3554 seconds
#
# Revision: 2
# Processed by: cddbd v1.5.2PL0 Copyright (c) Steve Scherf et al.
# Submitted via: ExactAudioCopy v0.99pb4
#
DISCID=9b0de00b
DTITLE=Steven Halpern - Deja-Blues
DYEAR=2000
DGENRE=New Age
TTITLE0=Deja-Blues
TTITLE1=Inside The Temple
TTITLE2=Invocation At Eleusis
TTITLE3=Deja-Blues II
TTITLE4=Trippin'
TTITLE5=Moroccan Roll
TTITLE6=Blue Ganges
TTITLE7=Marrakesh
TTITLE8=Astral Glide
TTITLE9=Deja-Blues (Reprise)
TTITLE10=Atlantis Rising
EXTD=YEAR: 2000 ID3G:   0
EXTT0=
EXTT1=
EXTT2=
EXTT3=
EXTT4=
EXTT5=
EXTT6=
EXTT7=
EXTT8=
EXTT9=
EXTT10=
PLAYORDER=
